<mxfile host="app.diagrams.net" agent="Mozilla/5.0 (Windows NT 10.0; Win64; x64) AppleWebKit/537.36 (KHTML, like Gecko) Chrome/138.0.0.0 Safari/537.36" version="26.2.13">
  <diagram name="Page-1" id="t-rVTQ2J7z9_8yiJJlyM">
    <mxGraphModel dx="1620" dy="1036" grid="1" gridSize="10" guides="1" tooltips="1" connect="1" arrows="1" fold="1" page="1" pageScale="1" pageWidth="2000" pageHeight="2000" math="0" shadow="0">
      <root>
        <mxCell id="0" />
        <mxCell id="1" parent="0" />
        <mxCell id="GG6Gq7_B4kYG7_Mdkgmn-4" style="edgeStyle=orthogonalEdgeStyle;rounded=0;orthogonalLoop=1;jettySize=auto;html=1;" edge="1" parent="1" source="GG6Gq7_B4kYG7_Mdkgmn-1" target="GG6Gq7_B4kYG7_Mdkgmn-2">
          <mxGeometry relative="1" as="geometry" />
        </mxCell>
        <mxCell id="GG6Gq7_B4kYG7_Mdkgmn-5" style="edgeStyle=orthogonalEdgeStyle;rounded=0;orthogonalLoop=1;jettySize=auto;html=1;entryX=0.5;entryY=0;entryDx=0;entryDy=0;" edge="1" parent="1" source="GG6Gq7_B4kYG7_Mdkgmn-1" target="GG6Gq7_B4kYG7_Mdkgmn-3">
          <mxGeometry relative="1" as="geometry">
            <Array as="points">
              <mxPoint x="300" y="320" />
              <mxPoint x="120" y="320" />
            </Array>
          </mxGeometry>
        </mxCell>
        <mxCell id="GG6Gq7_B4kYG7_Mdkgmn-7" style="edgeStyle=orthogonalEdgeStyle;rounded=0;orthogonalLoop=1;jettySize=auto;html=1;" edge="1" parent="1" source="GG6Gq7_B4kYG7_Mdkgmn-1" target="GG6Gq7_B4kYG7_Mdkgmn-6">
          <mxGeometry relative="1" as="geometry" />
        </mxCell>
        <mxCell id="GG6Gq7_B4kYG7_Mdkgmn-9" style="edgeStyle=orthogonalEdgeStyle;rounded=0;orthogonalLoop=1;jettySize=auto;html=1;" edge="1" parent="1" source="GG6Gq7_B4kYG7_Mdkgmn-1" target="GG6Gq7_B4kYG7_Mdkgmn-8">
          <mxGeometry relative="1" as="geometry">
            <Array as="points">
              <mxPoint x="300" y="320" />
              <mxPoint x="480" y="320" />
            </Array>
          </mxGeometry>
        </mxCell>
        <mxCell id="GG6Gq7_B4kYG7_Mdkgmn-1" value="&lt;b&gt;&lt;font style=&quot;font-size: 24px;&quot;&gt;Frontend&lt;/font&gt;&lt;/b&gt;" style="rounded=0;whiteSpace=wrap;html=1;" vertex="1" parent="1">
          <mxGeometry x="240" y="210" width="120" height="60" as="geometry" />
        </mxCell>
        <mxCell id="GG6Gq7_B4kYG7_Mdkgmn-12" style="edgeStyle=orthogonalEdgeStyle;rounded=0;orthogonalLoop=1;jettySize=auto;html=1;entryX=0;entryY=0.5;entryDx=0;entryDy=0;" edge="1" parent="1" source="GG6Gq7_B4kYG7_Mdkgmn-2" target="GG6Gq7_B4kYG7_Mdkgmn-11">
          <mxGeometry relative="1" as="geometry" />
        </mxCell>
        <mxCell id="GG6Gq7_B4kYG7_Mdkgmn-19" style="edgeStyle=orthogonalEdgeStyle;rounded=0;orthogonalLoop=1;jettySize=auto;html=1;entryX=0.5;entryY=0;entryDx=0;entryDy=0;" edge="1" parent="1" source="GG6Gq7_B4kYG7_Mdkgmn-2" target="GG6Gq7_B4kYG7_Mdkgmn-13">
          <mxGeometry relative="1" as="geometry">
            <Array as="points">
              <mxPoint x="880" y="320" />
              <mxPoint x="710" y="320" />
            </Array>
          </mxGeometry>
        </mxCell>
        <mxCell id="GG6Gq7_B4kYG7_Mdkgmn-20" style="edgeStyle=orthogonalEdgeStyle;rounded=0;orthogonalLoop=1;jettySize=auto;html=1;entryX=0.5;entryY=0;entryDx=0;entryDy=0;" edge="1" parent="1" source="GG6Gq7_B4kYG7_Mdkgmn-2" target="GG6Gq7_B4kYG7_Mdkgmn-15">
          <mxGeometry relative="1" as="geometry" />
        </mxCell>
        <mxCell id="GG6Gq7_B4kYG7_Mdkgmn-21" style="edgeStyle=orthogonalEdgeStyle;rounded=0;orthogonalLoop=1;jettySize=auto;html=1;entryX=0.5;entryY=0;entryDx=0;entryDy=0;" edge="1" parent="1" source="GG6Gq7_B4kYG7_Mdkgmn-2" target="GG6Gq7_B4kYG7_Mdkgmn-18">
          <mxGeometry relative="1" as="geometry">
            <Array as="points">
              <mxPoint x="880" y="320" />
              <mxPoint x="1050" y="320" />
            </Array>
          </mxGeometry>
        </mxCell>
        <mxCell id="GG6Gq7_B4kYG7_Mdkgmn-2" value="&lt;b&gt;&lt;font style=&quot;font-size: 24px;&quot;&gt;Backend&lt;/font&gt;&lt;/b&gt;" style="rounded=0;whiteSpace=wrap;html=1;" vertex="1" parent="1">
          <mxGeometry x="820" y="210" width="120" height="60" as="geometry" />
        </mxCell>
        <mxCell id="GG6Gq7_B4kYG7_Mdkgmn-3" value="React/Next.js" style="rounded=0;whiteSpace=wrap;html=1;" vertex="1" parent="1">
          <mxGeometry x="60" y="370" width="120" height="60" as="geometry" />
        </mxCell>
        <mxCell id="GG6Gq7_B4kYG7_Mdkgmn-6" value="Typescript" style="rounded=0;whiteSpace=wrap;html=1;" vertex="1" parent="1">
          <mxGeometry x="240" y="370" width="120" height="60" as="geometry" />
        </mxCell>
        <mxCell id="GG6Gq7_B4kYG7_Mdkgmn-8" value="Tailwind CSS" style="rounded=0;whiteSpace=wrap;html=1;" vertex="1" parent="1">
          <mxGeometry x="420" y="370" width="120" height="60" as="geometry" />
        </mxCell>
        <mxCell id="GG6Gq7_B4kYG7_Mdkgmn-23" style="edgeStyle=orthogonalEdgeStyle;rounded=0;orthogonalLoop=1;jettySize=auto;html=1;entryX=0.5;entryY=0;entryDx=0;entryDy=0;" edge="1" parent="1" source="GG6Gq7_B4kYG7_Mdkgmn-11" target="GG6Gq7_B4kYG7_Mdkgmn-16">
          <mxGeometry relative="1" as="geometry" />
        </mxCell>
        <mxCell id="GG6Gq7_B4kYG7_Mdkgmn-24" style="edgeStyle=orthogonalEdgeStyle;rounded=0;orthogonalLoop=1;jettySize=auto;html=1;entryX=0.5;entryY=0;entryDx=0;entryDy=0;" edge="1" parent="1" source="GG6Gq7_B4kYG7_Mdkgmn-11" target="GG6Gq7_B4kYG7_Mdkgmn-17">
          <mxGeometry relative="1" as="geometry" />
        </mxCell>
        <mxCell id="GG6Gq7_B4kYG7_Mdkgmn-11" value="&lt;b&gt;&lt;font style=&quot;font-size: 24px;&quot;&gt;Database&lt;/font&gt;&lt;/b&gt;" style="rounded=0;whiteSpace=wrap;html=1;" vertex="1" parent="1">
          <mxGeometry x="1310" y="210" width="120" height="60" as="geometry" />
        </mxCell>
        <mxCell id="GG6Gq7_B4kYG7_Mdkgmn-22" style="edgeStyle=orthogonalEdgeStyle;rounded=0;orthogonalLoop=1;jettySize=auto;html=1;entryX=0.5;entryY=0;entryDx=0;entryDy=0;" edge="1" parent="1" source="GG6Gq7_B4kYG7_Mdkgmn-13" target="GG6Gq7_B4kYG7_Mdkgmn-14">
          <mxGeometry relative="1" as="geometry" />
        </mxCell>
        <mxCell id="GG6Gq7_B4kYG7_Mdkgmn-13" value="Node.js/Express" style="rounded=0;whiteSpace=wrap;html=1;" vertex="1" parent="1">
          <mxGeometry x="650" y="370" width="120" height="60" as="geometry" />
        </mxCell>
        <mxCell id="GG6Gq7_B4kYG7_Mdkgmn-14" value="Python/FastAPI" style="rounded=0;whiteSpace=wrap;html=1;" vertex="1" parent="1">
          <mxGeometry x="650" y="490" width="120" height="60" as="geometry" />
        </mxCell>
        <mxCell id="GG6Gq7_B4kYG7_Mdkgmn-15" value="Socket.io (real-time voice interaction)" style="rounded=0;whiteSpace=wrap;html=1;" vertex="1" parent="1">
          <mxGeometry x="820" y="370" width="120" height="60" as="geometry" />
        </mxCell>
        <mxCell id="GG6Gq7_B4kYG7_Mdkgmn-16" value="PostgreSQL" style="rounded=0;whiteSpace=wrap;html=1;" vertex="1" parent="1">
          <mxGeometry x="1210" y="370" width="120" height="60" as="geometry" />
        </mxCell>
        <mxCell id="GG6Gq7_B4kYG7_Mdkgmn-17" value="Redis (cache for webscraping)" style="rounded=0;whiteSpace=wrap;html=1;" vertex="1" parent="1">
          <mxGeometry x="1410" y="370" width="120" height="60" as="geometry" />
        </mxCell>
        <mxCell id="GG6Gq7_B4kYG7_Mdkgmn-18" value="Puppeteer (for webscraping)" style="rounded=0;whiteSpace=wrap;html=1;" vertex="1" parent="1">
          <mxGeometry x="990" y="370" width="120" height="60" as="geometry" />
        </mxCell>
      </root>
    </mxGraphModel>
  </diagram>
</mxfile>
